<svg width="16" height="16" viewBox="0 0 16 16" fill="none" xmlns="http://www.w3.org/2000/svg">
<path fill-rule="evenodd" clip-rule="evenodd" d="M15.6095 0.390524C16.1302 0.911223 16.1302 1.75544 15.6095 2.27614L2.27614 15.6095C1.75544 16.1302 0.911223 16.1302 0.390524 15.6095C-0.130175 15.0888 -0.130175 14.2446 0.390524 13.7239L13.7239 0.390524C14.2446 -0.130175 15.0888 -0.130175 15.6095 0.390524Z" fill="white"/>
<path fill-rule="evenodd" clip-rule="evenodd" d="M1.98682e-08 1.33333C1.98682e-08 0.596954 0.596954 1.98682e-08 1.33333 1.98682e-08H14.6667C15.403 1.98682e-08 16 0.596954 16 1.33333V14.6667C16 15.403 15.403 16 14.6667 16C13.9303 16 13.3333 15.403 13.3333 14.6667V2.66667H1.33333C0.596954 2.66667 1.98682e-08 2.06971 1.98682e-08 1.33333Z" fill="white"/>
</svg>
