<svg width="17" height="16" viewBox="0 0 17 16" fill="none" xmlns="http://www.w3.org/2000/svg">
<path fill-rule="evenodd" clip-rule="evenodd" d="M0.5 8C0.5 7.44771 0.947715 7 1.5 7L15.5 7C16.0523 7 16.5 7.44771 16.5 8C16.5 8.55228 16.0523 9 15.5 9H1.5C0.947715 9 0.5 8.55228 0.5 8Z" fill="white"/>
<path fill-rule="evenodd" clip-rule="evenodd" d="M7.79289 15.7071C7.40237 15.3166 7.40237 14.6834 7.79289 14.2929L14.0858 8L7.79289 1.70711C7.40237 1.31658 7.40237 0.683417 7.79289 0.292893C8.18342 -0.0976315 8.81658 -0.0976315 9.20711 0.292893L16.2071 7.29289C16.5976 7.68342 16.5976 8.31658 16.2071 8.70711L9.20711 15.7071C8.81658 16.0976 8.18342 16.0976 7.79289 15.7071Z" fill="white"/>
</svg>
